#define close_hover_width 10
#define close_hover_height 10
static unsigned char close_hover_bits[] = {
   0x00, 0x00, 0x00, 0x00, 0xcc, 0x00, 0xfc, 0x00, 0x78, 0x00, 0x78, 0x00,
   0xfc, 0x00, 0xcc, 0x00, 0x00, 0x00, 0x00, 0x00 };
